<?xml version="1.0" encoding="UTF-8"?>
<svg width="522px" height="540px" viewBox="0 0 522 540" version="1.1" xmlns="http://www.w3.org/2000/svg" xmlns:xlink="http://www.w3.org/1999/xlink">
    <g id="logo/bildmarke" stroke="none" stroke-width="1" fill="none" fill-rule="evenodd">
        <g id="Zeichenfläche-1" fill="#003996" fill-rule="nonzero">
            <path d="M260.986499,11.7283625 C227.613051,11.6717081 194.593803,18.5691274 164.033613,31.9812854 C134.355866,44.9753359 107.699628,63.5752985 84.8047486,87.2870103 C61.9067951,110.986406 43.7587527,138.851685 31.3410615,169.377437 C18.3261639,201.252286 11.7188082,235.095685 11.7188082,269.989517 C11.7188082,304.883349 18.3180633,338.726748 31.3302607,370.579994 C43.7479519,401.105746 61.8959944,428.971025 84.7939479,452.670421 C107.688827,476.374032 134.345065,494.982096 164.022812,507.976146 C225.835945,534.993967 296.118152,534.993967 357.931285,507.976146 C387.606331,494.982096 414.26257,476.382133 437.157449,452.670421 C460.055402,428.971025 478.203445,401.105746 490.621136,370.579994 C503.636034,338.715947 510.235289,304.880649 510.235289,269.989517 C510.235289,235.098385 503.636034,201.252286 490.621136,169.39904 C478.203445,138.873288 460.055402,111.008009 437.157449,87.3086131 C414.26257,63.6050023 387.606331,44.9969387 357.931285,32.0028882 C327.370141,18.5907412 294.350016,11.6933308 260.975698,11.7503157 M260.975698,539.999758 C225.984908,540.048252 191.367648,532.806935 159.329888,518.737013 C128.245345,505.127284 100.33352,485.644309 76.3693669,460.836258 C52.4305521,436.063583 33.457505,406.935057 20.4755121,375.024759 C6.89087523,341.745732 0,306.409043 0,269.989517 C0,233.569991 6.89087523,198.233303 20.4836127,164.962377 C33.4656056,133.052078 52.4386526,103.923552 76.3774674,79.1508769 C100.34162,54.3428258 128.253445,34.8652518 159.337989,21.2501224 C224.151771,-7.08337413 297.848229,-7.08337413 362.662011,21.2501224 C393.743855,34.8598511 421.65568,54.3428258 445.619832,79.1508769 C469.558647,103.923552 488.531694,133.052078 501.513687,164.962377 C515.106425,198.233303 522,233.567291 522,269.989517 C522,306.411743 515.106425,341.745732 501.513687,375.016658 C488.531694,406.926956 469.558647,436.055482 445.619832,460.828157 C421.65568,485.636208 393.743855,505.113782 362.662011,518.728912 C330.618872,532.79535 295.997008,540.03207 261.0027,539.977911" id="Shape"></path>
            <path d="M110.001621,405.00154 C162.727195,320.688607 191.327643,258.722477 191.327643,195.233254 C191.327643,148.51426 175.409979,116 152.27937,116 C135.369892,116 111.990654,136.316011 91.3490378,175.427641 C71.7019379,212.503079 62,248.565822 62,276.5 C62,306.475771 71.950567,325.257887 87.3682705,325.257887 C111.493396,325.257887 136.613037,278.538893 136.613037,214.026172 C136.613037,182.53541 133.37005,162.219398 129.89735,162.219398 C128.902834,162.219398 128.156947,164.25289 128.156947,168.314472 C128.156947,171.363359 128.902834,175.932638 128.902834,181.520014 C128.902834,203.361819 125.659847,223.170133 119.949486,242.978446 C106.769444,288.690147 90.6031507,313.578138 81.6498024,313.578138 C73.1937122,313.578138 66.2293963,298.846802 66.2293963,276.5 C66.2293963,253.135102 74.1882284,224.185528 90.1058926,192.187068 C111.742025,148.506158 134.372673,127.174751 148.301305,127.174751 C160.986792,127.174751 167.948405,141.903387 167.948405,167.299076 C167.948405,222.659734 148.798563,287.674751 113.731057,370.972288 C96.8188769,411.096613 87.6168996,424.809853 87.6168996,431.412624 C87.6168996,435.463404 88.6114158,437 91.3490378,437 C92.8408121,437 118.209083,412.619706 153.276589,357.256347 C204.259056,277.007698 229.875956,201.836025 247.534023,164.765989 C215.947324,252.125107 191.079014,309.513856 191.079014,377.070062 C191.079014,410.083918 198.04333,433.956514 204.756314,433.956514 C215.201437,433.956514 220.430754,379.611251 244.799104,303.931881 C274.891326,209.969991 302,189.65398 302,182.033113 C302,181.017717 301.502742,180.002322 300.508226,180.002322 C298.019233,180.002322 281.358384,199.810636 263.213868,241.968452 C241.823663,290.726339 225.160111,347.105093 210.245071,412.11741 C212.482732,371.485387 226.162735,311.550048 243.569471,224.701328 C257.000845,157.65822 264.711048,126.167457 264.711048,123.626268 C264.711048,121.085079 263.467902,118.549291 261.973426,118.549291 C259.000687,118.549291 250.285158,144.960376 227.651807,198.797941 C186.366773,296.823213 147.154549,365.560446 110.015134,405.009641" id="Path"></path>
            <path d="M439.524835,135.779564 C419.441686,146.936576 395.395786,189.027466 374.816956,256.471034 C360.191683,304.644626 350.032923,352.314023 336.638769,386.289253 C326.474621,412.151518 316.062634,424.322313 301.933041,424.322313 C286.065871,424.322313 275.158203,410.123951 275.158203,395.416001 C275.158203,381.217639 280.858531,380.710747 291.022678,379.190072 C295.238658,378.68318 299.947624,369.553736 299.947624,354.848482 C299.947624,340.65012 293.999456,330 285.32235,330 C273.668467,330 264,349.269976 264,375.132241 C264,408.60058 279.123648,432.435278 303.667923,432.435278 C347.309373,432.435278 375.326106,383.752098 396.139307,287.404914 C411.015114,218.437974 415.971921,160.121154 443.73812,140.344286 C447.9541,147.950359 450.432503,159.614262 450.432503,173.812624 C450.432503,223.509588 431.095569,270.162505 419.937366,270.162505 C414.237039,270.162505 410.2689,267.628046 408.286177,267.628046 C405.322869,267.628046 403.825051,270.669396 403.825051,274.220335 C403.825051,278.264684 405.807774,281.826408 409.277538,281.826408 C413.493518,281.826408 416.467602,279.798841 418.946005,279.798841 C423.905506,279.798841 428.118791,292.983419 428.118791,310.730024 C428.118791,333.550939 423.409825,359.413204 413.989198,387.809928 C405.559933,413.154517 397.874189,425.842989 390.436285,425.842989 C384.485423,425.842989 380.767818,417.215043 380.767818,404.038554 C380.767818,371.583999 400.600433,358.39942 400.600433,352.314023 C400.600433,350.28376 399.609071,348.763084 398.36987,348.763084 C394.652265,348.763084 375.811011,374.62535 375.811011,404.545445 C375.811011,424.829205 382.998381,437 396.634987,437 C422.914144,437 450.680343,386.796145 450.680343,339.126748 C450.680343,306.672194 442.003238,285.371954 424.153346,274.724531 C455.38931,258.495905 472,228.079703 472,192.573012 C472,169.754794 464.562096,148.961446 450.928184,136.793348 C459.85313,132.228625 464.066415,133.242409 464.066415,127.663903 C464.066415,125.636336 463.075054,124.622553 461.340172,124.622553 C459.85313,124.622553 454.150108,127.157011 444.729482,132.228625 C432.086931,120.564722 419.945448,116 406.055614,116 C376.802373,116 346.307236,133.749301 323.500537,162.644828 C302.178187,189.523573 291.518359,221.46854 291.518359,247.330805 C291.518359,275.730226 303.417389,298.041552 322.261336,298.041552 C349.036174,298.041552 373.082074,252.402419 373.082074,190.030465 C373.082074,176.845886 372.834233,169.746705 370.35583,169.746705 C367.392522,169.746705 369.612309,184.451959 363.413607,208.793549 C352.753779,250.374852 328.953025,281.308731 313.08855,281.308731 C302.178187,281.308731 295.734338,268.124153 295.734338,248.854177 C295.734338,228.570417 306.146326,195.608971 326.226781,169.746705 C348.540493,141.347285 379.027548,123.101877 404.320732,123.101877 C419.193845,123.101877 430.847729,127.666599 439.524835,135.774172" id="Path"></path>
        </g>
    </g>
</svg>
