<?xml version="1.0" encoding="UTF-8"?>
<svg width="418px" height="89px" viewBox="0 0 418 89" version="1.1" xmlns="http://www.w3.org/2000/svg" xmlns:xlink="http://www.w3.org/1999/xlink">
    <g id="logo/logo-blau" stroke="none" stroke-width="1" fill="none" fill-rule="evenodd">
        <path d="M107.104492,65.4355469 C108.601237,65.4355469 109.791829,65.1031087 110.67627,64.4382324 C111.56071,63.7733561 112.00293,62.8564453 112.00293,61.6875 C112.00293,60.6360677 111.641113,59.7578125 110.91748,59.0527344 C110.193848,58.3476562 109.040365,57.7569987 107.457031,57.2807617 C106.597331,57.0209961 105.94637,56.7426758 105.50415,56.4458008 C105.06193,56.1489258 104.84082,55.7809245 104.84082,55.3417969 C104.84082,54.8717448 105.02946,54.4929199 105.406738,54.2053223 C105.784017,53.9177246 106.312826,53.7739258 106.993164,53.7739258 C107.698242,53.7739258 108.245605,53.9455566 108.635254,54.2888184 C109.024902,54.6320801 109.219727,55.1129557 109.219727,55.7314453 L109.219727,55.7314453 L112.00293,55.7314453 C112.00293,54.921224 111.794189,54.1975911 111.376709,53.5605469 C110.959229,52.9235026 110.37321,52.4302572 109.618652,52.0808105 C108.864095,51.7313639 108.004395,51.5566406 107.039551,51.5566406 C106.080892,51.5566406 105.216553,51.7174479 104.446533,52.0390625 C103.676514,52.3606771 103.085856,52.8075358 102.674561,53.3796387 C102.263265,53.9517415 102.057617,54.6027018 102.057617,55.3325195 C102.057617,56.7364909 102.824544,57.8528646 104.358398,58.6816406 C104.921224,58.9847005 105.685059,59.2923991 106.649902,59.6047363 C107.614746,59.9170736 108.282715,60.2139486 108.653809,60.4953613 C109.024902,60.7767741 109.210449,61.1803385 109.210449,61.7060547 C109.210449,62.1884766 109.024902,62.564209 108.653809,62.833252 C108.282715,63.1022949 107.766276,63.2368164 107.104492,63.2368164 C105.323242,63.2368164 104.432617,62.4915365 104.432617,61.0009766 L104.432617,61.0009766 L101.640137,61.0009766 C101.640137,61.8730469 101.864339,62.639974 102.312744,63.3017578 C102.761149,63.9635417 103.412109,64.4846191 104.265625,64.8649902 C105.119141,65.2453613 106.06543,65.4355469 107.104492,65.4355469 Z M117.931152,65.4355469 C118.698079,65.4355469 119.398519,65.2793783 120.032471,64.967041 C120.666423,64.6547038 121.165853,64.2155762 121.530762,63.6496582 C121.895671,63.0837402 122.081217,62.460612 122.087402,61.7802734 L122.087402,61.7802734 L119.573242,61.7802734 C119.560872,62.2317708 119.400065,62.5935872 119.09082,62.8657227 C118.781576,63.1378581 118.379557,63.2739258 117.884766,63.2739258 C117.241536,63.2739258 116.762207,63.0481771 116.446777,62.5966797 C116.131348,62.1451823 115.973633,61.4029948 115.973633,60.3701172 L115.973633,60.3701172 L115.973633,60.0917969 C115.973633,59.0712891 116.132894,58.3337402 116.451416,57.8791504 C116.769938,57.4245605 117.241536,57.1972656 117.866211,57.1972656 C118.373372,57.1972656 118.781576,57.3596191 119.09082,57.6843262 C119.400065,58.0090332 119.560872,58.4311523 119.573242,58.9506836 L119.573242,58.9506836 L122.087402,58.9506836 C122.075033,57.7631836 121.690023,56.8122559 120.932373,56.0979004 C120.174723,55.3835449 119.168132,55.0263672 117.912598,55.0263672 C116.477702,55.0263672 115.348958,55.4871419 114.526367,56.4086914 C113.703776,57.3302409 113.29248,58.5641276 113.29248,60.1103516 L113.29248,60.1103516 L113.29248,60.2866211 C113.29248,61.894694 113.706868,63.1548665 114.535645,64.0671387 C115.364421,64.9794108 116.496257,65.4355469 117.931152,65.4355469 Z M126.234375,65.25 L126.234375,58.1157227 C126.586914,57.5096029 127.155924,57.206543 127.941406,57.206543 C128.516602,57.206543 128.927897,57.3441569 129.175293,57.6193848 C129.422689,57.8946126 129.546387,58.3198242 129.546387,58.8950195 L129.546387,58.8950195 L129.546387,65.25 L132.227539,65.25 L132.227539,58.8208008 C132.196615,56.2911784 131.092611,55.0263672 128.915527,55.0263672 C127.839355,55.0263672 126.945638,55.453125 126.234375,56.3066406 L126.234375,56.3066406 L126.234375,51 L123.553223,51 L123.553223,65.25 L126.234375,65.25 Z M137.07959,65.25 L137.07959,51 L134.38916,51 L134.38916,65.25 L137.07959,65.25 Z M143.629395,65.4355469 C145.07666,65.4355469 146.230143,64.9701335 147.089844,64.0393066 C147.949544,63.1084798 148.379395,61.8730469 148.379395,60.3330078 L148.379395,60.3330078 L148.36084,59.6464844 C148.261882,58.2239583 147.784098,57.0983073 146.92749,56.2695312 C146.070882,55.4407552 144.965332,55.0263672 143.61084,55.0263672 C142.658366,55.0263672 141.821859,55.2397461 141.101318,55.6665039 C140.380778,56.0932617 139.828776,56.6962891 139.445312,57.4755859 C139.061849,58.2548828 138.870117,59.1424154 138.870117,60.1381836 L138.870117,60.1381836 L138.870117,60.2587891 C138.870117,61.8544922 139.301514,63.1162109 140.164307,64.0439453 C141.0271,64.9716797 142.182129,65.4355469 143.629395,65.4355469 Z M143.629395,63.2739258 C142.961426,63.2739258 142.448079,63.0218913 142.089355,62.5178223 C141.730632,62.0137533 141.55127,61.2854818 141.55127,60.3330078 C141.55127,59.2630208 141.730632,58.4729004 142.089355,57.9626465 C142.448079,57.4523926 142.955241,57.1972656 143.61084,57.1972656 C144.272624,57.1972656 144.78597,57.4539388 145.150879,57.9672852 C145.515788,58.4806315 145.698242,59.2042643 145.698242,60.1381836 C145.698242,61.2329102 145.515788,62.0292155 145.150879,62.5270996 C144.78597,63.0249837 144.278809,63.2739258 143.629395,63.2739258 Z M153.853027,65.4355469 C155.096191,65.4355469 156.110514,65.1525879 156.895996,64.5866699 C157.681478,64.020752 158.074219,63.2801107 158.074219,62.3647461 C158.074219,61.0844727 157.366048,60.1845703 155.949707,59.6650391 C155.492025,59.4980469 154.929199,59.3480632 154.26123,59.2150879 C153.593262,59.0821126 153.118571,58.9243978 152.837158,58.7419434 C152.555745,58.5594889 152.415039,58.3198242 152.415039,58.0229492 C152.415039,57.7075195 152.538737,57.4477539 152.786133,57.2436523 C153.033529,57.0395508 153.382975,56.9375 153.834473,56.9375 C154.360189,56.9375 154.746745,57.0627441 154.994141,57.3132324 C155.241536,57.5637207 155.365234,57.8806966 155.365234,58.2641602 L155.365234,58.2641602 L158.046387,58.2641602 C158.046387,57.3055013 157.664469,56.5262044 156.900635,55.9262695 C156.1368,55.3263346 155.117839,55.0263672 153.84375,55.0263672 C152.650065,55.0263672 151.683675,55.3247884 150.94458,55.9216309 C150.205485,56.5184733 149.835938,57.262207 149.835938,58.152832 C149.835938,59.6805013 151.029622,60.6948242 153.416992,61.1958008 C154.13444,61.3442383 154.655518,61.5127767 154.980225,61.701416 C155.304932,61.8900553 155.467285,62.1482747 155.467285,62.4760742 C155.467285,62.7915039 155.335856,63.0466309 155.072998,63.2414551 C154.81014,63.4362793 154.422038,63.5336914 153.908691,63.5336914 C153.358236,63.5336914 152.919108,63.406901 152.591309,63.1533203 C152.263509,62.8997396 152.08724,62.5348307 152.0625,62.0585938 L152.0625,62.0585938 L149.520508,62.0585938 C149.520508,62.6647135 149.706055,63.2290853 150.077148,63.751709 C150.448242,64.2743327 150.960042,64.6856283 151.612549,64.9855957 C152.265055,65.2855632 153.011882,65.4355469 153.853027,65.4355469 Z M163.62207,65.4355469 C164.865234,65.4355469 165.879557,65.1525879 166.665039,64.5866699 C167.450521,64.020752 167.843262,63.2801107 167.843262,62.3647461 C167.843262,61.0844727 167.135091,60.1845703 165.71875,59.6650391 C165.261068,59.4980469 164.698242,59.3480632 164.030273,59.2150879 C163.362305,59.0821126 162.887614,58.9243978 162.606201,58.7419434 C162.324788,58.5594889 162.184082,58.3198242 162.184082,58.0229492 C162.184082,57.7075195 162.30778,57.4477539 162.555176,57.2436523 C162.802572,57.0395508 163.152018,56.9375 163.603516,56.9375 C164.129232,56.9375 164.515788,57.0627441 164.763184,57.3132324 C165.010579,57.5637207 165.134277,57.8806966 165.134277,58.2641602 L165.134277,58.2641602 L167.81543,58.2641602 C167.81543,57.3055013 167.433512,56.5262044 166.669678,55.9262695 C165.905843,55.3263346 164.886882,55.0263672 163.612793,55.0263672 C162.419108,55.0263672 161.452718,55.3247884 160.713623,55.9216309 C159.974528,56.5184733 159.60498,57.262207 159.60498,58.152832 C159.60498,59.6805013 160.798665,60.6948242 163.186035,61.1958008 C163.903483,61.3442383 164.424561,61.5127767 164.749268,61.701416 C165.073975,61.8900553 165.236328,62.1482747 165.236328,62.4760742 C165.236328,62.7915039 165.104899,63.0466309 164.842041,63.2414551 C164.579183,63.4362793 164.191081,63.5336914 163.677734,63.5336914 C163.127279,63.5336914 162.688151,63.406901 162.360352,63.1533203 C162.032552,62.8997396 161.856283,62.5348307 161.831543,62.0585938 L161.831543,62.0585938 L159.289551,62.0585938 C159.289551,62.6647135 159.475098,63.2290853 159.846191,63.751709 C160.217285,64.2743327 160.729085,64.6856283 161.381592,64.9855957 C162.034098,65.2855632 162.780924,65.4355469 163.62207,65.4355469 Z M174.188965,65.4355469 C175.023926,65.4355469 175.784668,65.2762858 176.471191,64.9577637 C177.157715,64.6392415 177.701986,64.1954753 178.104004,63.6264648 L178.104004,63.6264648 L176.786621,62.1513672 C176.205241,62.8997396 175.398112,63.2739258 174.365234,63.2739258 C173.697266,63.2739258 173.145264,63.0760091 172.709229,62.6801758 C172.273193,62.2843424 172.011882,61.7586263 171.925293,61.1030273 L171.925293,61.1030273 L178.317383,61.1030273 L178.317383,60.0083008 C178.317383,58.4187826 177.923096,57.1910807 177.134521,56.3251953 C176.345947,55.4593099 175.265137,55.0263672 173.89209,55.0263672 C172.976725,55.0263672 172.161865,55.2412923 171.44751,55.6711426 C170.733154,56.1009928 170.181152,56.7132975 169.791504,57.5080566 C169.401855,58.3028158 169.207031,59.2042643 169.207031,60.2124023 L169.207031,60.2124023 L169.207031,60.472168 C169.207031,61.9750977 169.669352,63.1780599 170.593994,64.0810547 C171.518636,64.9840495 172.71696,65.4355469 174.188965,65.4355469 Z M175.682617,59.2753906 L171.953125,59.2753906 C172.045898,58.6074219 172.257731,58.0940755 172.588623,57.7353516 C172.919515,57.3766276 173.350911,57.1972656 173.882812,57.1972656 C174.451823,57.1972656 174.890951,57.3596191 175.200195,57.6843262 C175.50944,58.0090332 175.670247,58.4682617 175.682617,59.0620117 L175.682617,59.0620117 L175.682617,59.2753906 Z M182.52002,65.25 L182.52002,58.6816406 C182.835449,57.9951172 183.500326,57.6518555 184.514648,57.6518555 C184.792969,57.6518555 185.114583,57.6765951 185.479492,57.7260742 L185.479492,57.7260742 L185.516602,55.1469727 C185.256836,55.066569 184.978516,55.0263672 184.681641,55.0263672 C183.729167,55.0263672 182.983887,55.4871419 182.445801,56.4086914 L182.445801,56.4086914 L182.371582,55.2119141 L179.838867,55.2119141 L179.838867,65.25 L182.52002,65.25 Z M191.38916,65.4355469 C192.224121,65.4355469 192.984863,65.2762858 193.671387,64.9577637 C194.35791,64.6392415 194.902181,64.1954753 195.304199,63.6264648 L195.304199,63.6264648 L193.986816,62.1513672 C193.405436,62.8997396 192.598307,63.2739258 191.56543,63.2739258 C190.897461,63.2739258 190.345459,63.0760091 189.909424,62.6801758 C189.473389,62.2843424 189.212077,61.7586263 189.125488,61.1030273 L189.125488,61.1030273 L195.517578,61.1030273 L195.517578,60.0083008 C195.517578,58.4187826 195.123291,57.1910807 194.334717,56.3251953 C193.546143,55.4593099 192.465332,55.0263672 191.092285,55.0263672 C190.176921,55.0263672 189.362061,55.2412923 188.647705,55.6711426 C187.93335,56.1009928 187.381348,56.7132975 186.991699,57.5080566 C186.602051,58.3028158 186.407227,59.2042643 186.407227,60.2124023 L186.407227,60.2124023 L186.407227,60.472168 C186.407227,61.9750977 186.869548,63.1780599 187.794189,64.0810547 C188.718831,64.9840495 189.917155,65.4355469 191.38916,65.4355469 Z M192.882812,59.2753906 L189.15332,59.2753906 C189.246094,58.6074219 189.457926,58.0940755 189.788818,57.7353516 C190.11971,57.3766276 190.551107,57.1972656 191.083008,57.1972656 C191.652018,57.1972656 192.091146,57.3596191 192.400391,57.6843262 C192.709635,58.0090332 192.870443,58.4682617 192.882812,59.0620117 L192.882812,59.0620117 L192.882812,59.2753906 Z M198.523438,54.0058594 C198.974935,54.0058594 199.338298,53.8759766 199.613525,53.6162109 C199.888753,53.3564453 200.026367,53.0224609 200.026367,52.6142578 C200.026367,52.2122396 199.890299,51.8813477 199.618164,51.621582 C199.346029,51.3618164 198.98112,51.2319336 198.523438,51.2319336 C198.05957,51.2319336 197.693115,51.3618164 197.424072,51.621582 C197.155029,51.8813477 197.020508,52.2122396 197.020508,52.6142578 C197.020508,53.0224609 197.158122,53.3564453 197.43335,53.6162109 C197.708577,53.8759766 198.07194,54.0058594 198.523438,54.0058594 Z M199.868652,65.25 L199.868652,55.2119141 L197.178223,55.2119141 L197.178223,65.25 L199.868652,65.25 Z M210.07373,65.4355469 C211.242676,65.4355469 212.15804,65.0335286 212.819824,64.2294922 L212.819824,64.2294922 L212.894043,65.25 L215.41748,65.25 L215.41748,55.2119141 L212.727051,55.2119141 L212.727051,62.3183594 C212.386882,62.9492188 211.762207,63.2646484 210.853027,63.2646484 C209.900553,63.2646484 209.424316,62.7420247 209.424316,61.6967773 L209.424316,61.6967773 L209.424316,55.2119141 L206.743164,55.2119141 L206.743164,61.7895508 C206.755534,62.9832357 207.044678,63.8893229 207.610596,64.5078125 C208.176514,65.1263021 208.997559,65.4355469 210.07373,65.4355469 Z M220.06543,65.25 L220.06543,58.1713867 C220.442708,57.5281576 221.008626,57.206543 221.763184,57.206543 C222.338379,57.206543 222.749674,57.3348796 222.99707,57.5915527 C223.244466,57.8482259 223.368164,58.2610677 223.368164,58.8300781 L223.368164,58.8300781 L223.368164,65.25 L226.049316,65.25 L226.049316,58.7651367 C226.036947,57.5219727 225.770996,56.5880534 225.251465,55.9633789 C224.731934,55.3387044 223.940267,55.0263672 222.876465,55.0263672 C221.67041,55.0263672 220.708659,55.4747721 219.991211,56.371582 L219.991211,56.371582 L219.907715,55.2119141 L217.384277,55.2119141 L217.384277,65.25 L220.06543,65.25 Z M231.578613,65.4355469 C232.630046,65.4355469 233.489746,65.0180664 234.157715,64.1831055 L234.157715,64.1831055 L234.287598,65.25 L236.708984,65.25 L236.708984,51 L234.018555,51 L234.018555,56.1210938 C233.38151,55.391276 232.574382,55.0263672 231.597168,55.0263672 C230.378743,55.0263672 229.418538,55.4902344 228.716553,56.4179688 C228.014567,57.3457031 227.663574,58.5919596 227.663574,60.1567383 C227.663574,61.8142904 228.020752,63.1084798 228.735107,64.0393066 C229.449463,64.9701335 230.397298,65.4355469 231.578613,65.4355469 Z M232.265137,63.2646484 C231.640462,63.2646484 231.164225,63.0141602 230.836426,62.5131836 C230.508626,62.012207 230.344727,61.2916667 230.344727,60.3515625 C230.344727,58.2548828 230.991048,57.206543 232.283691,57.206543 C233.106283,57.206543 233.68457,57.5559896 234.018555,58.2548828 L234.018555,58.2548828 L234.018555,62.2163086 C233.678385,62.9152018 233.093913,63.2646484 232.265137,63.2646484 Z M253.45459,65.25 L253.45459,63.0141602 L246.64502,63.0141602 L253.306152,53.3378906 L253.306152,51.7421875 L243.175293,51.7421875 L243.175293,53.996582 L249.845703,53.996582 L243.166016,63.6171875 L243.166016,65.25 L253.45459,65.25 Z M259.651855,65.4355469 C260.486816,65.4355469 261.247559,65.2762858 261.934082,64.9577637 C262.620605,64.6392415 263.164876,64.1954753 263.566895,63.6264648 L263.566895,63.6264648 L262.249512,62.1513672 C261.668132,62.8997396 260.861003,63.2739258 259.828125,63.2739258 C259.160156,63.2739258 258.608154,63.0760091 258.172119,62.6801758 C257.736084,62.2843424 257.474772,61.7586263 257.388184,61.1030273 L257.388184,61.1030273 L263.780273,61.1030273 L263.780273,60.0083008 C263.780273,58.4187826 263.385986,57.1910807 262.597412,56.3251953 C261.808838,55.4593099 260.728027,55.0263672 259.35498,55.0263672 C258.439616,55.0263672 257.624756,55.2412923 256.9104,55.6711426 C256.196045,56.1009928 255.644043,56.7132975 255.254395,57.5080566 C254.864746,58.3028158 254.669922,59.2042643 254.669922,60.2124023 L254.669922,60.2124023 L254.669922,60.472168 C254.669922,61.9750977 255.132243,63.1780599 256.056885,64.0810547 C256.981527,64.9840495 258.17985,65.4355469 259.651855,65.4355469 Z M261.145508,59.2753906 L257.416016,59.2753906 C257.508789,58.6074219 257.720622,58.0940755 258.051514,57.7353516 C258.382406,57.3766276 258.813802,57.1972656 259.345703,57.1972656 C259.914714,57.1972656 260.353841,57.3596191 260.663086,57.6843262 C260.972331,58.0090332 261.133138,58.4682617 261.145508,59.0620117 L261.145508,59.0620117 L261.145508,59.2753906 Z M267.98291,65.25 L267.98291,58.6816406 C268.29834,57.9951172 268.963216,57.6518555 269.977539,57.6518555 C270.255859,57.6518555 270.577474,57.6765951 270.942383,57.7260742 L270.942383,57.7260742 L270.979492,55.1469727 C270.719727,55.066569 270.441406,55.0263672 270.144531,55.0263672 C269.192057,55.0263672 268.446777,55.4871419 267.908691,56.4086914 L267.908691,56.4086914 L267.834473,55.2119141 L265.301758,55.2119141 L265.301758,65.25 L267.98291,65.25 Z M276.054199,65.4355469 C277.297363,65.4355469 278.311686,65.1525879 279.097168,64.5866699 C279.88265,64.020752 280.275391,63.2801107 280.275391,62.3647461 C280.275391,61.0844727 279.56722,60.1845703 278.150879,59.6650391 C277.693197,59.4980469 277.130371,59.3480632 276.462402,59.2150879 C275.794434,59.0821126 275.319743,58.9243978 275.03833,58.7419434 C274.756917,58.5594889 274.616211,58.3198242 274.616211,58.0229492 C274.616211,57.7075195 274.739909,57.4477539 274.987305,57.2436523 C275.234701,57.0395508 275.584147,56.9375 276.035645,56.9375 C276.561361,56.9375 276.947917,57.0627441 277.195312,57.3132324 C277.442708,57.5637207 277.566406,57.8806966 277.566406,58.2641602 L277.566406,58.2641602 L280.247559,58.2641602 C280.247559,57.3055013 279.865641,56.5262044 279.101807,55.9262695 C278.337972,55.3263346 277.31901,55.0263672 276.044922,55.0263672 C274.851237,55.0263672 273.884847,55.3247884 273.145752,55.9216309 C272.406657,56.5184733 272.037109,57.262207 272.037109,58.152832 C272.037109,59.6805013 273.230794,60.6948242 275.618164,61.1958008 C276.335612,61.3442383 276.856689,61.5127767 277.181396,61.701416 C277.506104,61.8900553 277.668457,62.1482747 277.668457,62.4760742 C277.668457,62.7915039 277.537028,63.0466309 277.27417,63.2414551 C277.011312,63.4362793 276.62321,63.5336914 276.109863,63.5336914 C275.559408,63.5336914 275.12028,63.406901 274.79248,63.1533203 C274.464681,62.8997396 274.288411,62.5348307 274.263672,62.0585938 L274.263672,62.0585938 L271.72168,62.0585938 C271.72168,62.6647135 271.907227,63.2290853 272.27832,63.751709 C272.649414,64.2743327 273.161214,64.6856283 273.813721,64.9855957 C274.466227,65.2855632 275.213053,65.4355469 276.054199,65.4355469 Z M284.682129,69.109375 L284.682129,64.3779297 C285.306803,65.0830078 286.126302,65.4355469 287.140625,65.4355469 C288.33431,65.4355469 289.282145,64.9701335 289.984131,64.0393066 C290.686117,63.1084798 291.037109,61.8699544 291.037109,60.3237305 L291.037109,60.3237305 L291.037109,60.1845703 C291.037109,58.5764974 290.693848,57.3147786 290.007324,56.3994141 C289.320801,55.4840495 288.359049,55.0263672 287.12207,55.0263672 C286.076823,55.0263672 285.229492,55.4160156 284.580078,56.1953125 L284.580078,56.1953125 L284.487305,55.2119141 L282.000977,55.2119141 L282.000977,69.109375 L284.682129,69.109375 Z M286.435547,63.2739258 C285.594401,63.2739258 285.009928,62.9430339 284.682129,62.28125 L284.682129,62.28125 L284.682129,58.1713867 C284.997559,57.5281576 285.575846,57.206543 286.416992,57.206543 C287.047852,57.206543 287.528727,57.4601237 287.859619,57.9672852 C288.190511,58.4744466 288.355957,59.194987 288.355957,60.1289062 C288.355957,62.2255859 287.71582,63.2739258 286.435547,63.2739258 Z M295.712891,65.4355469 C296.751953,65.4355469 297.596191,65.0737305 298.245605,64.3500977 C298.30127,64.7088216 298.390951,65.0087891 298.514648,65.25 L298.514648,65.25 L301.223633,65.25 L301.223633,65.0922852 C300.963867,64.6036784 300.830892,63.883138 300.824707,62.9306641 L300.824707,62.9306641 L300.824707,58.5795898 C300.824707,57.4539388 300.461344,56.5803223 299.734619,55.9587402 C299.007894,55.3371582 298.026042,55.0263672 296.789062,55.0263672 C295.972656,55.0263672 295.236654,55.1670736 294.581055,55.4484863 C293.925456,55.7298991 293.418294,56.1180013 293.05957,56.612793 C292.700846,57.1075846 292.521484,57.6456706 292.521484,58.2270508 L292.521484,58.2270508 L295.202637,58.2270508 C295.202637,57.8497721 295.330973,57.5528971 295.587646,57.3364258 C295.84432,57.1199544 296.198405,57.0117188 296.649902,57.0117188 C297.163249,57.0117188 297.538981,57.1508789 297.7771,57.4291992 C298.015218,57.7075195 298.134277,58.0786133 298.134277,58.5424805 L298.134277,58.5424805 L298.134277,59.1176758 L296.900391,59.1176758 C295.409831,59.1238607 294.270264,59.4114583 293.481689,59.9804688 C292.693115,60.5494792 292.298828,61.3658854 292.298828,62.4296875 C292.298828,63.2955729 292.621989,64.0130208 293.268311,64.5820312 C293.914632,65.1510417 294.729492,65.4355469 295.712891,65.4355469 Z M296.297363,63.3852539 C295.88916,63.3852539 295.567546,63.2770182 295.33252,63.0605469 C295.097493,62.8440755 294.97998,62.5688477 294.97998,62.2348633 L294.97998,62.2348633 L294.989258,62.0771484 C295.075846,61.1494141 295.790202,60.6855469 297.132324,60.6855469 L297.132324,60.6855469 L298.134277,60.6855469 L298.134277,62.4111328 C297.97347,62.7080078 297.726074,62.9445801 297.39209,63.1208496 C297.058105,63.2971191 296.693197,63.3852539 296.297363,63.3852539 Z M305.509766,65.25 L305.509766,58.1713867 C305.887044,57.5281576 306.452962,57.206543 307.20752,57.206543 C307.782715,57.206543 308.19401,57.3348796 308.441406,57.5915527 C308.688802,57.8482259 308.8125,58.2610677 308.8125,58.8300781 L308.8125,58.8300781 L308.8125,65.25 L311.493652,65.25 L311.493652,58.7651367 C311.481283,57.5219727 311.215332,56.5880534 310.695801,55.9633789 C310.17627,55.3387044 309.384603,55.0263672 308.320801,55.0263672 C307.114746,55.0263672 306.152995,55.4747721 305.435547,56.371582 L305.435547,56.371582 L305.352051,55.2119141 L302.828613,55.2119141 L302.828613,65.25 L305.509766,65.25 Z M316.791016,65.4355469 C317.959961,65.4355469 318.875326,65.0335286 319.537109,64.2294922 L319.537109,64.2294922 L319.611328,65.25 L322.134766,65.25 L322.134766,55.2119141 L319.444336,55.2119141 L319.444336,62.3183594 C319.104167,62.9492188 318.479492,63.2646484 317.570312,63.2646484 C316.617839,63.2646484 316.141602,62.7420247 316.141602,61.6967773 L316.141602,61.6967773 L316.141602,55.2119141 L313.460449,55.2119141 L313.460449,61.7895508 C313.472819,62.9832357 313.761963,63.8893229 314.327881,64.5078125 C314.893799,65.1263021 315.714844,65.4355469 316.791016,65.4355469 Z M326.782715,65.25 L326.782715,58.1713867 C327.159993,57.5281576 327.725911,57.206543 328.480469,57.206543 C329.055664,57.206543 329.46696,57.3348796 329.714355,57.5915527 C329.961751,57.8482259 330.085449,58.2610677 330.085449,58.8300781 L330.085449,58.8300781 L330.085449,65.25 L332.766602,65.25 L332.766602,58.7651367 C332.754232,57.5219727 332.488281,56.5880534 331.96875,55.9633789 C331.449219,55.3387044 330.657552,55.0263672 329.59375,55.0263672 C328.387695,55.0263672 327.425944,55.4747721 326.708496,56.371582 L326.708496,56.371582 L326.625,55.2119141 L324.101562,55.2119141 L324.101562,65.25 L326.782715,65.25 Z M338.759766,69.2021484 C339.730794,69.2021484 340.578125,69.0320638 341.301758,68.6918945 C342.025391,68.3517253 342.58667,67.8569336 342.985596,67.2075195 C343.384521,66.5581055 343.583984,65.7942708 343.583984,64.9160156 L343.583984,64.9160156 L343.583984,55.2119141 L341.15332,55.2119141 L341.041992,56.1582031 C340.429688,55.4036458 339.573079,55.0263672 338.472168,55.0263672 C337.229004,55.0263672 336.240967,55.4964193 335.508057,56.4365234 C334.775146,57.3766276 334.408691,58.6166992 334.408691,60.1567383 L334.408691,60.1567383 L334.408691,60.2680664 C334.408691,61.8266602 334.781331,63.0775553 335.526611,64.020752 C336.271891,64.9639486 337.247559,65.4355469 338.453613,65.4355469 C339.461751,65.4355469 340.275065,65.0861003 340.893555,64.387207 L340.893555,64.387207 L340.893555,64.925293 C340.893555,65.6241862 340.695638,66.1638184 340.299805,66.5441895 C339.903971,66.9245605 339.350423,67.1147461 338.63916,67.1147461 C337.686686,67.1147461 336.876465,66.7405599 336.208496,65.9921875 L336.208496,65.9921875 L335.020996,67.625 C335.37972,68.0888672 335.908529,68.4676921 336.607422,68.7614746 C337.306315,69.0552572 338.023763,69.2021484 338.759766,69.2021484 Z M339.140137,63.2646484 C338.503092,63.2646484 338.002116,63.006429 337.637207,62.4899902 C337.272298,61.9735514 337.089844,61.2607422 337.089844,60.3515625 C337.089844,59.3063151 337.273844,58.5208333 337.641846,57.9951172 C338.009847,57.469401 338.515462,57.206543 339.158691,57.206543 C339.956543,57.206543 340.534831,57.5126953 340.893555,58.125 L340.893555,58.125 L340.893555,62.3461914 C340.541016,62.9584961 339.956543,63.2646484 339.140137,63.2646484 Z M349.46582,65.4355469 C350.708984,65.4355469 351.723307,65.1525879 352.508789,64.5866699 C353.294271,64.020752 353.687012,63.2801107 353.687012,62.3647461 C353.687012,61.0844727 352.978841,60.1845703 351.5625,59.6650391 C351.104818,59.4980469 350.541992,59.3480632 349.874023,59.2150879 C349.206055,59.0821126 348.731364,58.9243978 348.449951,58.7419434 C348.168538,58.5594889 348.027832,58.3198242 348.027832,58.0229492 C348.027832,57.7075195 348.15153,57.4477539 348.398926,57.2436523 C348.646322,57.0395508 348.995768,56.9375 349.447266,56.9375 C349.972982,56.9375 350.359538,57.0627441 350.606934,57.3132324 C350.854329,57.5637207 350.978027,57.8806966 350.978027,58.2641602 L350.978027,58.2641602 L353.65918,58.2641602 C353.65918,57.3055013 353.277262,56.5262044 352.513428,55.9262695 C351.749593,55.3263346 350.730632,55.0263672 349.456543,55.0263672 C348.262858,55.0263672 347.296468,55.3247884 346.557373,55.9216309 C345.818278,56.5184733 345.44873,57.262207 345.44873,58.152832 C345.44873,59.6805013 346.642415,60.6948242 349.029785,61.1958008 C349.747233,61.3442383 350.268311,61.5127767 350.593018,61.701416 C350.917725,61.8900553 351.080078,62.1482747 351.080078,62.4760742 C351.080078,62.7915039 350.948649,63.0466309 350.685791,63.2414551 C350.422933,63.4362793 350.034831,63.5336914 349.521484,63.5336914 C348.971029,63.5336914 348.531901,63.406901 348.204102,63.1533203 C347.876302,62.8997396 347.700033,62.5348307 347.675293,62.0585938 L347.675293,62.0585938 L345.133301,62.0585938 C345.133301,62.6647135 345.318848,63.2290853 345.689941,63.751709 C346.061035,64.2743327 346.572835,64.6856283 347.225342,64.9855957 C347.877848,65.2855632 348.624674,65.4355469 349.46582,65.4355469 Z M358.817383,65.4355469 C359.374023,65.4355469 359.915202,65.3551432 360.440918,65.1943359 L360.440918,65.1943359 L360.440918,63.1625977 C360.212077,63.2058919 359.949219,63.2275391 359.652344,63.2275391 C359.250326,63.2275391 358.97819,63.1471354 358.835938,62.9863281 C358.693685,62.8255208 358.622559,62.5595703 358.622559,62.1884766 L358.622559,62.1884766 L358.622559,57.1787109 L360.338867,57.1787109 L360.338867,55.2119141 L358.622559,55.2119141 L358.622559,52.7441406 L355.941406,52.7441406 L355.941406,55.2119141 L354.475586,55.2119141 L354.475586,57.1787109 L355.941406,57.1787109 L355.941406,62.5874023 C355.978516,64.4861654 356.937174,65.4355469 358.817383,65.4355469 Z M366.452637,65.4355469 C367.287598,65.4355469 368.04834,65.2762858 368.734863,64.9577637 C369.421387,64.6392415 369.965658,64.1954753 370.367676,63.6264648 L370.367676,63.6264648 L369.050293,62.1513672 C368.468913,62.8997396 367.661784,63.2739258 366.628906,63.2739258 C365.960938,63.2739258 365.408936,63.0760091 364.9729,62.6801758 C364.536865,62.2843424 364.275553,61.7586263 364.188965,61.1030273 L364.188965,61.1030273 L370.581055,61.1030273 L370.581055,60.0083008 C370.581055,58.4187826 370.186768,57.1910807 369.398193,56.3251953 C368.609619,55.4593099 367.528809,55.0263672 366.155762,55.0263672 C365.240397,55.0263672 364.425537,55.2412923 363.711182,55.6711426 C362.996826,56.1009928 362.444824,56.7132975 362.055176,57.5080566 C361.665527,58.3028158 361.470703,59.2042643 361.470703,60.2124023 L361.470703,60.2124023 L361.470703,60.472168 C361.470703,61.9750977 361.933024,63.1780599 362.857666,64.0810547 C363.782308,64.9840495 364.980632,65.4355469 366.452637,65.4355469 Z M367.946289,59.2753906 L364.216797,59.2753906 C364.30957,58.6074219 364.521403,58.0940755 364.852295,57.7353516 C365.183187,57.3766276 365.614583,57.1972656 366.146484,57.1972656 C366.715495,57.1972656 367.154622,57.3596191 367.463867,57.6843262 C367.773112,58.0090332 367.933919,58.4682617 367.946289,59.0620117 L367.946289,59.0620117 L367.946289,59.2753906 Z M376.32373,65.4355469 C377.090658,65.4355469 377.791097,65.2793783 378.425049,64.967041 C379.059001,64.6547038 379.558431,64.2155762 379.92334,63.6496582 C380.288249,63.0837402 380.473796,62.460612 380.47998,61.7802734 L380.47998,61.7802734 L377.96582,61.7802734 C377.953451,62.2317708 377.792643,62.5935872 377.483398,62.8657227 C377.174154,63.1378581 376.772135,63.2739258 376.277344,63.2739258 C375.634115,63.2739258 375.154785,63.0481771 374.839355,62.5966797 C374.523926,62.1451823 374.366211,61.4029948 374.366211,60.3701172 L374.366211,60.3701172 L374.366211,60.0917969 C374.366211,59.0712891 374.525472,58.3337402 374.843994,57.8791504 C375.162516,57.4245605 375.634115,57.1972656 376.258789,57.1972656 C376.765951,57.1972656 377.174154,57.3596191 377.483398,57.6843262 C377.792643,58.0090332 377.953451,58.4311523 377.96582,58.9506836 L377.96582,58.9506836 L380.47998,58.9506836 C380.467611,57.7631836 380.082601,56.8122559 379.324951,56.0979004 C378.567301,55.3835449 377.56071,55.0263672 376.305176,55.0263672 C374.87028,55.0263672 373.741536,55.4871419 372.918945,56.4086914 C372.096354,57.3302409 371.685059,58.5641276 371.685059,60.1103516 L371.685059,60.1103516 L371.685059,60.2866211 C371.685059,61.894694 372.099447,63.1548665 372.928223,64.0671387 C373.756999,64.9794108 374.888835,65.4355469 376.32373,65.4355469 Z M384.626953,65.25 L384.626953,58.1157227 C384.979492,57.5096029 385.548503,57.206543 386.333984,57.206543 C386.90918,57.206543 387.320475,57.3441569 387.567871,57.6193848 C387.815267,57.8946126 387.938965,58.3198242 387.938965,58.8950195 L387.938965,58.8950195 L387.938965,65.25 L390.620117,65.25 L390.620117,58.8208008 C390.589193,56.2911784 389.485189,55.0263672 387.308105,55.0263672 C386.231934,55.0263672 385.338216,55.453125 384.626953,56.3066406 L384.626953,56.3066406 L384.626953,51 L381.945801,51 L381.945801,65.25 L384.626953,65.25 Z M395.268066,65.25 L395.268066,58.1713867 C395.645345,57.5281576 396.211263,57.206543 396.96582,57.206543 C397.541016,57.206543 397.952311,57.3348796 398.199707,57.5915527 C398.447103,57.8482259 398.570801,58.2610677 398.570801,58.8300781 L398.570801,58.8300781 L398.570801,65.25 L401.251953,65.25 L401.251953,58.7651367 C401.239583,57.5219727 400.973633,56.5880534 400.454102,55.9633789 C399.93457,55.3387044 399.142904,55.0263672 398.079102,55.0263672 C396.873047,55.0263672 395.911296,55.4747721 395.193848,56.371582 L395.193848,56.371582 L395.110352,55.2119141 L392.586914,55.2119141 L392.586914,65.25 L395.268066,65.25 Z M404.768066,54.0058594 C405.219564,54.0058594 405.582926,53.8759766 405.858154,53.6162109 C406.133382,53.3564453 406.270996,53.0224609 406.270996,52.6142578 C406.270996,52.2122396 406.134928,51.8813477 405.862793,51.621582 C405.590658,51.3618164 405.225749,51.2319336 404.768066,51.2319336 C404.304199,51.2319336 403.937744,51.3618164 403.668701,51.621582 C403.399658,51.8813477 403.265137,52.2122396 403.265137,52.6142578 C403.265137,53.0224609 403.402751,53.3564453 403.677979,53.6162109 C403.953206,53.8759766 404.316569,54.0058594 404.768066,54.0058594 Z M406.113281,65.25 L406.113281,55.2119141 L403.422852,55.2119141 L403.422852,65.25 L406.113281,65.25 Z M411.002441,65.25 L411.002441,62.1884766 L411.967285,61.2236328 L414.546387,65.25 L417.626465,65.25 L413.683594,59.3959961 L417.311035,55.2119141 L414.091797,55.2119141 L411.521973,58.2270508 L411.002441,58.8950195 L411.002441,51 L408.321289,51 L408.321289,65.25 L411.002441,65.25 Z" id="SchlossereiundZerspanungstechnik" fill="#003996" fill-rule="nonzero"></path>
        <path d="M288.475098,41.2050781 C289.630371,41.2050781 290.674561,41.0307617 291.607666,40.6821289 C292.540771,40.3334961 293.226074,39.8481445 293.663574,39.2260742 L293.663574,39.2260742 L293.663574,33.9145508 L288.393066,33.9145508 L288.393066,34.980957 L292.402344,34.980957 L292.402344,38.8364258 C292.15625,39.137207 291.780273,39.4003906 291.274414,39.6259766 C290.495117,39.9677734 289.562012,40.1386719 288.475098,40.1386719 C287.538574,40.1386719 286.709717,39.8994141 285.988525,39.4208984 C285.267334,38.9423828 284.713623,38.267334 284.327393,37.395752 C283.941162,36.5241699 283.748047,35.5209961 283.748047,34.3862305 L283.748047,34.3862305 L283.748047,32.6225586 C283.748047,30.8178711 284.154785,29.4199219 284.968262,28.4287109 C285.781738,27.4375 286.885742,26.9418945 288.280273,26.9418945 C289.421875,26.9418945 290.346436,27.223877 291.053955,27.7878418 C291.761475,28.3518066 292.20752,29.1806641 292.39209,30.2744141 L292.39209,30.2744141 L293.65332,30.2744141 C293.475586,28.9003906 292.918457,27.8220215 291.981934,27.0393066 C291.04541,26.2565918 289.808105,25.8652344 288.27002,25.8652344 C286.506348,25.8652344 285.101562,26.4650879 284.055664,27.6647949 C283.009766,28.864502 282.486816,30.5 282.486816,32.5712891 L282.486816,32.5712891 L282.486816,34.4580078 C282.493652,35.7841797 282.746582,36.9599609 283.245605,37.9853516 C283.744629,39.0107422 284.44873,39.8037109 285.35791,40.3642578 C286.26709,40.9248047 287.306152,41.2050781 288.475098,41.2050781 Z M298.019023,41 L298.019023,33.3916016 C298.285625,32.5234375 298.695781,31.8688965 299.249492,31.4279785 C299.803203,30.9870605 300.466289,30.7666016 301.23875,30.7666016 C302.154766,30.7666016 302.833232,31.0007324 303.27415,31.4689941 C303.715068,31.9372559 303.938945,32.6464844 303.945781,33.5966797 L303.945781,33.5966797 L303.945781,41 L305.17625,41 L305.17625,33.6582031 C305.244609,32.8583984 305.582988,32.1799316 306.191387,31.6228027 C306.799785,31.0656738 307.544902,30.7802734 308.426738,30.7666016 C309.376934,30.7666016 310.062236,31.0058594 310.482646,31.484375 C310.903057,31.9628906 311.11668,32.6977539 311.123516,33.6889648 L311.123516,33.6889648 L311.123516,41 L312.353984,41 L312.353984,33.5966797 C312.306133,30.9990234 311.092754,29.7001953 308.713848,29.7001953 C307.914043,29.7001953 307.182598,29.8864746 306.519512,30.2590332 C305.856426,30.6315918 305.326641,31.1630859 304.930156,31.8535156 C304.458477,30.4179688 303.347637,29.7001953 301.597637,29.7001953 C300.845684,29.7001953 300.16209,29.8676758 299.546855,30.2026367 C298.931621,30.5375977 298.418926,31.0400391 298.00877,31.7099609 L298.00877,31.7099609 L297.967754,29.9052734 L296.788555,29.9052734 L296.788555,41 L298.019023,41 Z M320.052207,41.2050781 C321.344199,41.2050781 322.373008,40.6975098 323.138633,39.682373 C323.904258,38.6672363 324.28707,37.2949219 324.28707,35.5654297 L324.28707,35.5654297 L324.28707,35.3808594 C324.28707,33.5966797 323.905967,32.2038574 323.14376,31.2023926 C322.381553,30.2009277 321.344199,29.7001953 320.031699,29.7001953 C318.500449,29.7001953 317.345176,30.3051758 316.565879,31.5151367 L316.565879,31.5151367 L316.565879,25.25 L315.345664,25.25 L315.345664,41 L316.494102,41 L316.545371,39.4824219 C317.33834,40.6308594 318.507285,41.2050781 320.052207,41.2050781 Z M319.826621,40.1386719 C318.268027,40.1386719 317.181113,39.4414062 316.565879,38.046875 L316.565879,38.046875 L316.565879,33.0429688 C316.846152,32.2978516 317.259727,31.7321777 317.806602,31.3459473 C318.353477,30.9597168 319.01998,30.7666016 319.806113,30.7666016 C320.83834,30.7666016 321.638145,31.1647949 322.205527,31.9611816 C322.77291,32.7575684 323.056602,33.887207 323.056602,35.3500977 C323.056602,36.9428711 322.771201,38.1391602 322.2004,38.9389648 C321.6296,39.7387695 320.83834,40.1386719 319.826621,40.1386719 Z M328.437441,41 L328.437441,33.8427734 L336.968691,33.8427734 L336.968691,41 L338.240176,41 L338.240176,26.0703125 L336.968691,26.0703125 L336.968691,32.7763672 L328.437441,32.7763672 L328.437441,26.0703125 L327.176211,26.0703125 L327.176211,41 L328.437441,41 Z M350.786035,41.2050781 C351.572168,41.2050781 352.318994,41.0546875 353.026514,40.7539062 C353.734033,40.453125 354.357813,40.0361328 354.897852,39.5029297 L354.897852,39.5029297 L356.189844,41 L357.666406,41 L355.625879,38.6210938 C356.500879,37.4521484 356.938379,36.0200195 356.938379,34.324707 L356.938379,34.324707 L355.800195,34.324707 C355.800195,35.5961914 355.48916,36.734375 354.86709,37.7392578 L354.86709,37.7392578 L350.765527,32.9609375 L352.406152,31.6894531 C353.540918,30.7392578 354.108301,29.7719727 354.108301,28.7875977 C354.108301,27.9399414 353.814355,27.2409668 353.226465,26.6906738 C352.638574,26.1403809 351.869531,25.8652344 350.919336,25.8652344 C349.873438,25.8652344 349.039453,26.1694336 348.417383,26.777832 C347.795313,27.3862305 347.484277,28.2133789 347.484277,29.2592773 C347.484277,29.8129883 347.619287,30.3718262 347.889307,30.935791 C348.159326,31.4997559 348.591699,32.140625 349.186426,32.8583984 L349.186426,32.8583984 L349.042871,32.9609375 C347.969629,33.7675781 347.219385,34.4938965 346.792139,35.1398926 C346.364893,35.7858887 346.15127,36.4711914 346.15127,37.1958008 C346.15127,38.4125977 346.568262,39.3850098 347.402246,40.1130371 C348.23623,40.8410645 349.36416,41.2050781 350.786035,41.2050781 Z M350.099023,32.1713867 C349.176172,31.0366211 348.714746,30.0522461 348.714746,29.2182617 C348.714746,28.5415039 348.912988,27.987793 349.309473,27.5571289 C349.705957,27.1264648 350.23916,26.9111328 350.909082,26.9111328 C351.524316,26.9111328 352.016504,27.0905762 352.385645,27.4494629 C352.754785,27.8083496 352.939355,28.2543945 352.939355,28.7875977 C352.939355,29.293457 352.799219,29.734375 352.518945,30.1103516 C352.238672,30.4863281 351.879785,30.831543 351.442285,31.1459961 L351.442285,31.1459961 L350.099023,32.1713867 Z M350.786035,40.1694336 C349.740137,40.1694336 348.90957,39.8977051 348.294336,39.354248 C347.679102,38.810791 347.371484,38.0913086 347.371484,37.1958008 C347.371484,36.1704102 348.041406,35.1108398 349.38125,34.0170898 L349.38125,34.0170898 L349.85293,33.6582031 L349.996484,33.8120117 L354.169824,38.6518555 C353.70498,39.137207 353.180322,39.5114746 352.59585,39.7746582 C352.011377,40.0378418 351.408105,40.1694336 350.786035,40.1694336 Z M369.822617,41.2050781 C371.408555,41.2050781 372.67833,40.7880859 373.631943,39.9541016 C374.585557,39.1201172 375.147812,37.9169922 375.318711,36.3447266 L375.318711,36.3447266 L374.047227,36.3447266 C373.89,37.609375 373.476426,38.5578613 372.806504,39.1901855 C372.136582,39.8225098 371.141953,40.1386719 369.822617,40.1386719 C368.489609,40.1386719 367.431748,39.6259766 366.649033,38.6005859 C365.866318,37.5751953 365.474961,36.2011719 365.474961,34.4785156 L365.474961,34.4785156 L365.474961,32.6533203 C365.474961,30.8691406 365.876572,29.4711914 366.679795,28.4594727 C367.483018,27.4477539 368.561387,26.9418945 369.914902,26.9418945 C372.355332,26.9418945 373.732773,28.2099609 374.047227,30.7460938 L374.047227,30.7460938 L375.318711,30.7460938 C375.16832,29.2216797 374.62999,28.0270996 373.703721,27.1623535 C372.777451,26.2976074 371.514512,25.8652344 369.914902,25.8652344 C368.780137,25.8652344 367.776963,26.1437988 366.905381,26.7009277 C366.033799,27.2580566 365.365586,28.0493164 364.900742,29.074707 C364.435898,30.1000977 364.203477,31.2758789 364.203477,32.6020508 L364.203477,32.6020508 L364.203477,34.5400391 C364.210312,35.8457031 364.446152,37.0061035 364.910996,38.0212402 C365.37584,39.036377 366.033799,39.8208008 366.884873,40.3745117 C367.735947,40.9282227 368.715195,41.2050781 369.822617,41.2050781 Z M382.278652,41.2050781 C383.24252,41.2050781 384.10043,40.9726562 384.852383,40.5078125 C385.604336,40.0429688 386.1871,39.3815918 386.600674,38.5236816 C387.014248,37.6657715 387.221035,36.7001953 387.221035,35.6269531 L387.221035,35.6269531 L387.221035,35.3706055 C387.221035,33.6616211 386.763027,32.2893066 385.847012,31.2536621 C384.930996,30.2180176 383.734707,29.7001953 382.258145,29.7001953 C381.301113,29.7001953 380.444912,29.9377441 379.689541,30.4128418 C378.93417,30.8879395 378.349697,31.5527344 377.936123,32.4072266 C377.522549,33.2617188 377.315762,34.222168 377.315762,35.2885742 L377.315762,35.2885742 L377.315762,35.534668 C377.315762,37.2436523 377.775479,38.6159668 378.694912,39.6516113 C379.614346,40.6872559 380.808926,41.2050781 382.278652,41.2050781 Z M382.278652,40.1694336 C381.164395,40.1694336 380.26376,39.7438965 379.576748,38.8928223 C378.889736,38.041748 378.54623,36.953125 378.54623,35.6269531 L378.54623,35.6269531 L378.54623,35.4013672 C378.54623,34.0136719 378.891445,32.8908691 379.581875,32.032959 C380.272305,31.1750488 381.164395,30.7460938 382.258145,30.7460938 C382.98959,30.7460938 383.639004,30.939209 384.206387,31.3254395 C384.77377,31.7116699 385.214687,32.2568359 385.529141,32.9609375 C385.843594,33.6650391 386.00082,34.440918 386.00082,35.2885742 L386.00082,35.2885742 L386.00082,35.5244141 C386.00082,36.9189453 385.657314,38.041748 384.970303,38.8928223 C384.283291,39.7438965 383.386074,40.1694336 382.278652,40.1694336 Z M390.407539,41.0820312 C390.680977,41.0820312 390.896309,41.005127 391.053535,40.8513184 C391.210762,40.6975098 391.289375,40.5009766 391.289375,40.2617188 C391.289375,40.0224609 391.210762,39.8190918 391.053535,39.6516113 C390.896309,39.4841309 390.680977,39.4003906 390.407539,39.4003906 C390.134102,39.4003906 389.920479,39.4841309 389.76667,39.6516113 C389.612861,39.8190918 389.535957,40.0224609 389.535957,40.2617188 C389.535957,40.5009766 389.612861,40.6975098 389.76667,40.8513184 C389.920479,41.005127 390.134102,41.0820312 390.407539,41.0820312 Z M396.10625,41 L396.10625,35.6577148 L398.208301,33.5864258 L404.288867,41 L405.826953,41 L399.090137,32.7148438 L405.34502,26.0703125 L403.755664,26.0703125 L396.10625,34.1196289 L396.10625,26.0703125 L394.84502,26.0703125 L394.84502,41 L396.10625,41 Z M413.258574,41.2050781 C414.413848,41.2050781 415.458037,41.0307617 416.391143,40.6821289 C417.324248,40.3334961 418.009551,39.8481445 418.447051,39.2260742 L418.447051,39.2260742 L418.447051,33.9145508 L413.176543,33.9145508 L413.176543,34.980957 L417.18582,34.980957 L417.18582,38.8364258 C416.939727,39.137207 416.56375,39.4003906 416.057891,39.6259766 C415.278594,39.9677734 414.345488,40.1386719 413.258574,40.1386719 C412.322051,40.1386719 411.493193,39.8994141 410.772002,39.4208984 C410.050811,38.9423828 409.4971,38.267334 409.110869,37.395752 C408.724639,36.5241699 408.531523,35.5209961 408.531523,34.3862305 L408.531523,34.3862305 L408.531523,32.6225586 C408.531523,30.8178711 408.938262,29.4199219 409.751738,28.4287109 C410.565215,27.4375 411.669219,26.9418945 413.06375,26.9418945 C414.205352,26.9418945 415.129912,27.223877 415.837432,27.7878418 C416.544951,28.3518066 416.990996,29.1806641 417.175566,30.2744141 L417.175566,30.2744141 L418.436797,30.2744141 C418.259062,28.9003906 417.701934,27.8220215 416.76541,27.0393066 C415.828887,26.2565918 414.591582,25.8652344 413.053496,25.8652344 C411.289824,25.8652344 409.885039,26.4650879 408.839141,27.6647949 C407.793242,28.864502 407.270293,30.5 407.270293,32.5712891 L407.270293,32.5712891 L407.270293,34.4580078 C407.277129,35.7841797 407.530059,36.9599609 408.029082,37.9853516 C408.528105,39.0107422 409.232207,39.8037109 410.141387,40.3642578 C411.050566,40.9248047 412.089629,41.2050781 413.258574,41.2050781 Z" id="GmbH&amp;Co.KG" fill="#003996" fill-rule="nonzero"></path>
        <g id="Zeichenfläche-1" fill="#003996" fill-rule="nonzero">
            <path d="M43.0166667,1.9760892 C37.5193559,1.96675757 32.0803895,3.10284201 27.0464818,5.31197901 C22.157931,7.45224888 17.7670865,10.5158771 13.9958171,14.4214693 C10.2240413,18.3250329 7.23467599,22.9147654 5.18922039,27.9427086 C3.0453923,33.1928636 1.95702149,38.7672614 1.95702149,44.5146777 C1.95702149,50.262094 3.04405797,55.8364918 5.18744128,61.0830885 C7.23289688,66.1110317 10.2222622,70.7007642 13.994038,74.6043278 C17.7653073,78.5085857 22.1561519,81.5735482 27.0447026,83.7138181 C37.2266291,88.1639645 48.8035907,88.1639645 58.9855172,83.7138181 C63.8736232,81.5735482 68.2644678,78.50992 72.0357371,74.6043278 C75.8075129,70.7007642 78.7968782,66.1110317 80.8423338,61.0830885 C82.9861619,55.8347126 84.0731984,50.2616492 84.0731984,44.5146777 C84.0731984,38.7677061 82.9861619,33.1928636 80.8423338,27.9462669 C78.7968782,22.9183237 75.8075129,18.3285911 72.0357371,14.4250275 C68.2644678,10.5207696 63.8736232,7.4558071 58.9855172,5.31553723 C53.9514524,3.10640206 48.5123414,1.97031907 43.0148876,1.97970515 M43.0148876,88.988476 C37.2511665,88.9964636 31.5489738,87.8037352 26.2716792,85.4862569 C21.1513993,83.2445777 16.5537331,80.0355072 12.6063318,75.9493353 C8.66310422,71.8689902 5.53784327,67.0711863 3.39943528,61.8151924 C1.16175912,56.3337531 0.0266866567,50.5133933 0.0266866567,44.5146777 C0.0266866567,38.515962 1.16175912,32.6956022 3.40076962,27.2154973 C5.5391776,21.9595034 8.66443856,17.1616994 12.6076662,13.0813543 C16.5550675,8.99518241 21.1527336,5.7870015 26.2730135,3.54443278 C36.9492103,-1.12242062 49.0885708,-1.12242062 59.7647676,3.54443278 C64.8846027,5.78611194 69.4822689,8.99518241 73.4296702,13.0813543 C77.3728978,17.1616994 80.4981587,21.9595034 82.6365667,27.2154973 C84.8755772,32.6956022 86.0110945,38.5155172 86.0110945,44.5146777 C86.0110945,50.5138381 84.8755772,56.3337531 82.6365667,61.8138581 C80.4981587,67.0698519 77.3728978,71.8676559 73.4296702,75.948001 C69.4822689,80.0341729 64.8846027,83.2423538 59.7647676,85.4849225 C54.4865869,87.801827 48.7836357,88.9937981 43.0193353,88.9848776" id="Shape"></path>
            <path d="M18.1322489,66.7428836 C26.8098601,52.8564818 31.5169415,42.6506147 31.5169415,32.1938931 C31.5169415,24.4992404 28.8972014,19.1441179 25.0903498,19.1441179 C22.3073763,19.1441179 18.4596052,22.4901799 15.0623938,28.9318941 C11.8288606,35.0382459 10.2321089,40.9778061 10.2321089,45.5785857 C10.2321089,50.5156172 11.8697801,53.6090455 14.4072364,53.6090455 C18.3777661,53.6090455 22.511974,45.9143928 22.511974,35.2891004 C22.511974,30.1025487 21.9782409,26.7564868 21.4067016,26.7564868 C21.2430235,26.7564868 21.1202649,27.0914043 21.1202649,27.7603498 C21.1202649,28.2625037 21.2430235,29.0150675 21.2430235,29.9353123 C21.2430235,33.5326737 20.7092904,36.7951174 19.7694753,40.0575612 C17.6002949,47.5863118 14.9396352,51.6853823 13.466087,51.6853823 C12.0743778,51.6853823 10.9281859,49.2591204 10.9281859,45.5785857 C10.9281859,41.7303698 12.238056,36.9623538 14.8577961,31.6921839 C18.4186857,24.497906 22.1432534,20.9846077 24.4356372,20.9846077 C26.5234233,20.9846077 27.6691704,23.4104248 27.6691704,27.5931134 C27.6691704,36.7110545 24.5174763,47.4190755 18.746042,61.1382409 C15.9626237,67.7467466 14.4481559,70.0053273 14.4481559,71.0928086 C14.4481559,71.759975 14.6118341,72.0130535 15.0623938,72.0130535 C15.307911,72.0130535 19.4830385,67.9976012 25.2544728,58.8792154 C33.6452024,45.6622039 37.8612494,33.2813743 40.7674263,27.175912 C35.5688656,41.564023 31.476022,51.015992 31.476022,62.1425487 C31.476022,67.579955 32.6222139,71.5117891 33.7270415,71.5117891 C35.4461069,71.5117891 36.3067516,62.5610845 40.3173113,50.0966367 C45.26991,34.6210445 49.7314743,31.2749825 49.7314743,30.0198201 C49.7314743,29.8525837 49.6496352,29.6853473 49.485957,29.6853473 C49.0763168,29.6853473 46.3342629,32.9477911 43.348026,39.8912144 C39.8276112,47.9216742 37.0851124,57.2072964 34.6303848,67.9148726 C34.9986607,61.2227486 37.2501249,51.3513543 40.1149375,37.0473063 C42.3254823,26.0052574 43.5944328,20.8187056 43.5944328,20.4001699 C43.5944328,19.9816342 43.3898351,19.563988 43.1438731,19.563988 C42.6546177,19.563988 41.2202099,23.913913 37.4951974,32.7809995 C30.7004781,48.9258337 24.2469032,60.2469065 18.1344728,66.7442179" id="Path"></path>
            <path d="M72.5201,22.4065617 C69.2042829,24.2470515 65.2341979,31.1904748 61.8365417,42.3161419 C59.4218441,50.2629835 57.7445877,58.1266517 55.5331534,63.7312944 C53.8550075,67.9976012 52.135942,70.0053273 49.8030835,70.0053273 C47.1833433,70.0053273 45.3824388,67.6631284 45.3824388,65.2368666 C45.3824388,62.8946677 46.3235882,62.8110495 48.0017341,62.5601949 C48.6978111,62.4765767 49.4752824,60.9705597 49.4752824,58.5447426 C49.4752824,56.2025437 48.4932134,54.4456722 47.0605847,54.4456722 C45.1364768,54.4456722 43.5401699,57.6244978 43.5401699,61.8908046 C43.5401699,67.4118291 46.0371514,71.3436632 50.0895202,71.3436632 C57.2949175,71.3436632 61.9206047,63.3127586 65.3569565,47.4190755 C67.8130185,36.0421089 68.6314093,26.422014 73.2157321,23.1595702 C73.9118091,24.4142879 74.3210045,26.3383958 74.3210045,28.6805947 C74.3210045,36.8787356 71.1283908,44.5747226 69.2861219,44.5747226 C68.3449725,44.5747226 67.6898151,44.1566317 67.3624588,44.1566317 C66.8732034,44.1566317 66.625907,44.6583408 66.625907,45.2441129 C66.625907,45.9112794 66.9532634,46.4988306 67.5261369,46.4988306 C68.2222139,46.4988306 68.7132484,46.1643578 69.1224438,46.1643578 C69.9412794,46.1643578 70.6369115,48.3393203 70.6369115,51.2668466 C70.6369115,55.0314443 69.8594403,59.2977511 68.304053,63.9821489 C66.9123438,68.1630585 65.6433933,70.2561819 64.4153623,70.2561819 C63.4328486,70.2561819 62.8190555,68.8328936 62.8190555,66.6592654 C62.8190555,61.3054773 66.0935082,59.1305147 66.0935082,58.1266517 C66.0935082,57.7917341 65.9298301,57.5408796 65.7252324,57.5408796 C65.1114393,57.5408796 62.0006647,61.8071864 62.0006647,66.7428836 C62.0006647,70.0889455 63.1873313,72.0966717 65.4387956,72.0966717 C69.7776012,72.0966717 74.361924,63.8149125 74.361924,55.9512444 C74.361924,50.5974563 72.9292954,47.0837131 69.9821989,45.3272864 C75.1393953,42.6501699 77.8818941,37.6326337 77.8818941,31.7753573 C77.8818941,28.0112044 76.6538631,24.5810795 74.4028436,22.5737981 C75.8763918,21.8207896 76.572024,21.988026 76.572024,21.0677811 C76.572024,20.7333083 76.4083458,20.566072 76.121909,20.566072 C75.8763918,20.566072 74.9347976,20.9841629 73.3794103,21.8207896 C71.292069,19.8966817 69.2874563,19.1436732 66.9941829,19.1436732 C62.1643428,19.1436732 57.1294603,22.0716442 53.363973,26.8383258 C49.8435582,31.2723138 48.0835732,36.542039 48.0835732,40.8083458 C48.0835732,45.4931884 50.0481559,49.1737231 53.1593753,49.1737231 C57.58002,49.1737231 61.5501049,41.6449725 61.5501049,31.355932 C61.5501049,29.1809695 61.5091854,28.0098701 61.09999,28.0098701 C60.6107346,28.0098701 60.9772314,30.4356872 59.9537981,34.4511394 C58.1938131,41.3104998 54.2642029,46.4134333 51.6449075,46.4134333 C49.8435582,46.4134333 48.7796502,44.2384708 48.7796502,41.0596452 C48.7796502,37.7135832 50.4987156,32.2761769 53.814088,28.0098701 C57.4981809,23.3250275 62.5317291,20.3152174 66.7077461,20.3152174 C69.1633633,20.3152174 71.0874713,21.0682259 72.5201,22.4056722" id="Path"></path>
        </g>
        <path d="M111.843089,41.4796841 L114.636595,29.3403622 L117.488605,41.4796841 L122.812356,41.4796841 L127.331693,20.1846808 L122.241954,20.1846808 L119.799464,33.5379349 L116.830449,20.1846808 L112.471993,20.1846808 L109.546856,33.5379349 L107.104365,20.1846808 L102,20.1846808 L106.533964,41.4796841 L111.843089,41.4796841 Z M133.752371,41.7721978 C135.380698,41.7721978 136.648257,41.201796 137.55505,40.0609922 C137.691556,40.6850216 137.847564,41.1579189 138.023072,41.4796841 L138.023072,41.4796841 L142.951929,41.4796841 L142.951929,41.2310473 C142.522909,40.460761 142.298649,39.3492087 142.279148,37.8963902 L142.279148,37.8963902 L142.279148,30.8906852 C142.249896,29.1746043 141.650243,27.8241657 140.480188,26.8393693 C139.310133,25.8545729 137.715933,25.3621747 135.697588,25.3621747 C133.679242,25.3621747 132.019227,25.8399472 130.71754,26.7954923 C129.415854,27.7510373 128.765011,28.9942208 128.765011,30.525043 L128.765011,30.525043 L133.693868,30.525043 C133.693868,29.3744888 134.278896,28.7992117 135.448951,28.7992117 C136.70676,28.7992117 137.335665,29.5256209 137.335665,30.9784393 L137.335665,30.9784393 L137.335665,31.8121036 L135.814593,31.8121036 C133.396479,31.8121036 131.553642,32.2508743 130.286083,33.1284156 C129.018523,34.005957 128.384743,35.302768 128.384743,37.0188489 C128.384743,38.3839132 128.906393,39.5174041 129.949692,40.4193216 C130.992991,41.3212391 132.260551,41.7721978 133.752371,41.7721978 Z M134.937052,38.2620325 C134.46903,38.2620325 134.083887,38.1230884 133.781622,37.8452003 C133.479358,37.5673122 133.328226,37.2041076 133.328226,36.7555865 C133.328226,35.2150139 134.186266,34.4447276 135.902347,34.4447276 L135.902347,34.4447276 L137.335665,34.4447276 L137.335665,36.9749718 C137.160156,37.3064874 136.87008,37.6038765 136.465436,37.8671389 C136.060792,38.1304013 135.551331,38.2620325 134.937052,38.2620325 Z M150.206271,41.4796841 L150.206271,19.0146257 L145.262788,19.0146257 L145.262788,41.4796841 L150.206271,41.4796841 Z M159.025562,41.7721978 C159.990857,41.7721978 160.917151,41.6308162 161.804442,41.3480529 L161.804442,41.3480529 L161.804442,37.8232618 C161.472927,37.8817645 161.063408,37.9110159 160.575885,37.9110159 C159.942105,37.9110159 159.51796,37.7940104 159.30345,37.5599994 C159.08894,37.3259884 158.981684,36.9115938 158.981684,36.3168158 L158.981684,36.3168158 L158.981684,29.0770997 L161.585057,29.0770997 L161.585057,25.6546885 L158.981684,25.6546885 L158.981684,21.7203782 L154.052827,21.7203782 L154.052827,25.6546885 L152.034482,25.6546885 L152.034482,29.0770997 L154.052827,29.0770997 L154.052827,36.9310948 C154.052827,38.5594215 154.457471,39.7733537 155.266759,40.5728913 C156.076048,41.372429 157.328982,41.7721978 159.025562,41.7721978 Z M171.179509,41.7721978 C172.47632,41.7721978 173.687815,41.5211235 174.813993,41.0189748 C175.940171,40.5168262 176.810399,39.8416069 177.424678,38.9933169 L177.424678,38.9933169 L175.172322,36.3314415 C174.294781,37.423493 173.075973,37.9695187 171.5159,37.9695187 C170.570105,37.9695187 169.799819,37.7160067 169.205041,37.2089829 C168.610263,36.701959 168.22512,36.0048011 168.049612,35.1175093 L168.049612,35.1175093 L177.848823,35.1175093 L177.848823,33.2015441 C177.848823,30.7346778 177.205293,28.8113997 175.918232,27.4317097 C174.631172,26.0520197 172.876089,25.3621747 170.652984,25.3621747 C169.07341,25.3621747 167.708346,25.7010032 166.557791,26.3786601 C165.407237,27.056317 164.532133,28.0142997 163.93248,29.252608 C163.332827,30.4909164 163.033,31.9193587 163.033,33.5379349 L163.033,33.5379349 L163.033,33.9474542 C163.033,36.2680635 163.783786,38.1523398 165.285356,39.600283 C166.786927,41.0482262 168.751645,41.7721978 171.179509,41.7721978 Z M173.022346,32.0314889 L168.049612,32.0314889 C168.322625,30.1203989 169.180665,29.1648539 170.623733,29.1648539 C171.40377,29.1648539 172.003423,29.3818016 172.422693,29.815697 C172.841962,30.2495925 173.041847,30.8614338 173.022346,31.651221 L173.022346,32.0314889 Z M184.796026,41.4796841 L184.796026,31.4610871 C185.234796,30.4860411 186.229343,29.9985182 187.779666,29.9985182 L187.779666,29.9985182 L189.403118,30.1155237 L189.490872,25.537683 C189.100853,25.4206775 188.642582,25.3621747 188.116057,25.3621747 C186.633987,25.3621747 185.478558,26.1373363 184.649769,27.6876593 L184.649769,27.6876593 L184.488886,25.6546885 L179.867168,25.6546885 L179.867168,41.4796841 L184.796026,41.4796841 Z M207.509721,41.4796841 C210.103343,41.4601831 212.060748,40.9263455 213.381935,39.8781711 C214.703122,38.8299967 215.363716,37.2626104 215.363716,35.1760121 C215.363716,34.0254579 215.066327,33.0504119 214.471549,32.2508743 C213.876771,31.4513366 213.023605,30.9053109 211.912053,30.6127971 C212.89685,30.2422796 213.64276,29.6670025 214.149784,28.8869658 C214.656807,28.106929 214.910319,27.1660097 214.910319,26.0642078 C214.910319,24.1531178 214.196098,22.6954241 212.767656,21.6911268 C211.339214,20.6868295 209.255053,20.1846808 206.515174,20.1846808 L206.515174,20.1846808 L198.865939,20.1846808 L198.865939,41.4796841 L207.509721,41.4796841 Z M206.676056,29.0624741 L203.999555,29.0624741 L203.999555,24.1482425 L206.515174,24.1482425 C207.665728,24.1482425 208.499392,24.3456893 209.016167,24.7405829 C209.532941,25.1354766 209.791328,25.7814445 209.791328,26.6784867 C209.791328,27.4585235 209.552442,28.0484263 209.074669,28.4481951 C208.596897,28.847964 207.797359,29.0527236 206.676056,29.0624741 L206.676056,29.0624741 Z M207.363464,37.530748 L203.999555,37.530748 L203.999555,32.4263825 L207.597475,32.4263825 C209.362308,32.436133 210.244725,33.3283 210.244725,35.1028836 C210.244725,35.8731699 209.996088,36.4703856 209.498814,36.8945305 C209.001541,37.3186755 208.289757,37.530748 207.363464,37.530748 L207.363464,37.530748 Z M224.987419,41.7721978 C227.327529,41.7721978 229.182554,41.0482262 230.552494,39.600283 C231.922433,38.1523398 232.607403,36.1949351 232.607403,33.7280689 L232.607403,33.7280689 L232.607403,33.5525606 C232.607403,31.0271916 231.924871,29.0307851 230.559807,27.5633409 C229.194742,26.0958968 227.327529,25.3621747 224.958168,25.3621747 C223.407845,25.3621747 222.057406,25.6936903 220.906852,26.3567216 C219.756298,27.0197528 218.873881,27.967985 218.259602,29.2014181 C217.645323,30.4348512 217.338184,31.841355 217.338184,33.4209294 L217.338184,33.4209294 L217.352809,34.2545937 C217.460064,36.5654525 218.196224,38.3961013 219.561288,39.7465399 C220.926353,41.0969785 222.735063,41.7721978 224.987419,41.7721978 Z M224.987419,37.9695187 C224.090377,37.9695187 223.41272,37.6282526 222.954448,36.9457205 C222.496177,36.2631883 222.267041,35.1906378 222.267041,33.7280689 L222.267041,33.7280689 L222.281667,32.8359018 C222.418173,30.3885365 223.31034,29.1648539 224.958168,29.1648539 C226.771753,29.1648539 227.678546,30.5835457 227.678546,33.4209294 L227.678546,33.4209294 L227.678546,33.9182028 C227.639544,36.6190801 226.742502,37.9695187 224.987419,37.9695187 Z M237.477758,23.9727343 C238.287046,23.9727343 238.945202,23.7484737 239.452226,23.2999526 C239.959249,22.8514314 240.212761,22.2761543 240.212761,21.5741213 C240.212761,20.8720882 239.959249,20.2968111 239.452226,19.84829 C238.945202,19.3997688 238.287046,19.1755083 237.477758,19.1755083 C236.668469,19.1755083 236.010313,19.3997688 235.50329,19.84829 C234.996266,20.2968111 234.742754,20.8720882 234.742754,21.5741213 C234.742754,22.2761543 234.996266,22.8514314 235.50329,23.2999526 C236.010313,23.7484737 236.668469,23.9727343 237.477758,23.9727343 Z M239.97875,41.4796841 L239.97875,25.6546885 L235.035267,25.6546885 L235.035267,41.4796841 L239.97875,41.4796841 Z M247.979002,41.4796841 L247.979002,36.9749718 L249.368443,35.5855314 L252.820105,41.4796841 L258.465621,41.4796841 L252.556843,32.1631201 L258.099979,25.6546885 L252.191201,25.6546885 L248.476276,30.2764062 L247.979002,30.9345623 L247.979002,19 L243.050145,19 L243.050145,41.4796841 L247.979002,41.4796841 Z M267.050901,41.7721978 C268.347712,41.7721978 269.559206,41.5211235 270.685385,41.0189748 C271.811563,40.5168262 272.681791,39.8416069 273.29607,38.9933169 L273.29607,38.9933169 L271.043714,36.3314415 C270.166173,37.423493 268.947365,37.9695187 267.387292,37.9695187 C266.441497,37.9695187 265.671211,37.7160067 265.076433,37.2089829 C264.481655,36.701959 264.096512,36.0048011 263.921003,35.1175093 L263.921003,35.1175093 L273.720215,35.1175093 L273.720215,33.2015441 C273.720215,30.7346778 273.076685,28.8113997 271.789624,27.4317097 C270.502563,26.0520197 268.747481,25.3621747 266.524376,25.3621747 C264.944802,25.3621747 263.579737,25.7010032 262.429183,26.3786601 C261.278629,27.056317 260.403525,28.0142997 259.803872,29.252608 C259.204219,30.4909164 258.904392,31.9193587 258.904392,33.5379349 L258.904392,33.5379349 L258.904392,33.9474542 C258.904392,36.2680635 259.655177,38.1523398 261.156748,39.600283 C262.658319,41.0482262 264.623036,41.7721978 267.050901,41.7721978 Z M268.893738,32.0314889 L263.921003,32.0314889 C264.194016,30.1203989 265.052057,29.1648539 266.495125,29.1648539 C267.275161,29.1648539 267.874815,29.3818016 268.294084,29.815697 C268.713354,30.2495925 268.913239,30.8614338 268.893738,31.651221 L268.893738,32.0314889 Z" id="WalterBoike" fill="#003996" fill-rule="nonzero"></path>
    </g>
</svg>
